<?xml version="1.0" encoding="utf-8"?>
<!-- Generator: Adobe Illustrator 23.0.3, SVG Export Plug-In . SVG Version: 6.00 Build 0)  -->
<svg version="1.1" xmlns="http://www.w3.org/2000/svg" xmlns:xlink="http://www.w3.org/1999/xlink" x="0px" y="0px"
	 viewBox="0 0 307.35 20.1" style="enable-background:new 0 0 307.35 20.1;" xml:space="preserve">
<style type="text/css">
	.st0{display:none;}
	.st1{display:inline;fill:none;}
	.st2{display:inline;fill:#CB4F0C;}
	.st3{font-family:'MuseoSlab-500';}
	.st4{font-size:28px;}
	.st5{fill:#CB4F0C;}
</style>
<g id="Layer_1" class="st0">
	<rect x="-8.47" y="0.05" class="st1" width="326.29" height="21.03"/>
	<text transform="matrix(1 0 0 1 -1.0846 19.8129)" class="st2 st3 st4">Unto the Whole Person.</text>
</g>
<g id="Layer_2" class="st0">
	<g>
		<path class="st2" d="M2.49,2.16H0V0h7.78v2.16H5.29v10.22c0,1.29,0.25,2.41,0.76,3.22c0.81,1.29,2.35,2.02,4.26,2.02
			c1.88,0,3.44-0.73,4.26-2.07c0.48-0.81,0.76-1.9,0.76-3.19V2.16h-2.49V0h7.76v2.16h-2.46V12.4c0,1.88-0.5,3.58-1.37,4.82
			c-1.34,1.9-3.75,2.88-6.44,2.88c-2.8,0-5.15-1.06-6.5-2.88c-0.92-1.26-1.32-2.91-1.32-4.82V2.16z"/>
		<path class="st2" d="M21.53,17.67h2.21V8.32c0-0.42-0.22-0.62-0.62-0.62h-1.74V5.6h3.19c1.23,0,1.79,0.53,1.79,1.57V7.9
			c0,0.45-0.08,0.81-0.08,0.81h0.06c0.28-0.76,1.93-3.44,5.52-3.44c3.25,0,4.7,1.82,4.7,5.43v6.97h2.24v2.1h-4.96v-8.46
			c0-1.99-0.39-3.56-2.66-3.56c-2.86,0-4.73,2.6-4.73,5.43v4.48h2.24v2.1h-7.17V17.67z"/>
		<path class="st2" d="M41.47,7.7h-2.38V5.6h2.44V1.71h2.66V5.6h3.39v2.1h-3.39v6.64c0,2.88,1.96,3.25,3.02,3.25
			c0.39,0,0.64-0.03,0.64-0.03v2.27c0,0-0.39,0.06-0.98,0.06c-1.79,0-5.4-0.56-5.4-5.29V7.7z"/>
		<path class="st2" d="M56.73,5.26c4.23,0,7.64,3.11,7.64,7.39c0,4.31-3.42,7.45-7.64,7.45c-4.23,0-7.64-3.14-7.64-7.45
			C49.08,8.37,52.5,5.26,56.73,5.26z M56.73,17.75c2.66,0,4.87-2.13,4.87-5.1c0-2.94-2.21-5.04-4.87-5.04
			c-2.69,0-4.87,2.1-4.87,5.04C51.86,15.62,54.04,17.75,56.73,17.75z"/>
		<path class="st2" d="M73.98,7.7H71.6V5.6h2.44V1.71h2.66V5.6h3.39v2.1h-3.39v6.64c0,2.88,1.96,3.25,3.02,3.25
			c0.39,0,0.64-0.03,0.64-0.03v2.27c0,0-0.39,0.06-0.98,0.06c-1.79,0-5.4-0.56-5.4-5.29V7.7z"/>
		<path class="st2" d="M81.37,17.67h2.24V2.1h-2.38V0h5.07v7.34c0,0.67-0.08,1.18-0.08,1.18h0.06c0.62-1.37,2.46-3.25,5.29-3.25
			c3.33,0,4.87,1.82,4.87,5.43v6.97h2.21v2.1h-4.93v-8.46c0-1.99-0.42-3.56-2.69-3.56c-2.77,0-4.73,2.35-4.73,5.38v4.54h2.24v2.1
			h-7.17V17.67z"/>
		<path class="st2" d="M106.88,5.26c4.03,0,6.13,2.97,6.13,6.64c0,0.36-0.08,1.04-0.08,1.04h-10.36c0.17,3.14,2.38,4.82,4.9,4.82
			c2.46,0,4.23-1.6,4.23-1.6l1.12,1.99c0,0-2.13,1.96-5.52,1.96c-4.45,0-7.5-3.22-7.5-7.42C99.79,8.18,102.84,5.26,106.88,5.26z
			 M110.21,11.2c-0.08-2.49-1.6-3.78-3.39-3.78c-2.07,0-3.75,1.4-4.14,3.78H110.21z"/>
		<path class="st2" d="M120.23,0h7.03v2.16h-2.35l3.08,12.96c0.14,0.7,0.22,1.48,0.22,1.48h0.08c0,0,0.11-0.78,0.28-1.48L132.72,0
			h2.38l4.12,15.12c0.2,0.7,0.28,1.48,0.28,1.48h0.11c0,0,0.06-0.78,0.2-1.48l3.08-12.96h-2.35V0h7.06v2.16h-1.9l-4.42,17.61h-3.19
			L134.2,5.74c-0.2-0.7-0.25-1.57-0.25-1.57h-0.11c0,0-0.06,0.87-0.25,1.57l-3.86,14.03h-3.19l-4.4-17.61h-1.9V0z"/>
		<path class="st2" d="M148.23,17.67h2.24V2.1h-2.38V0h5.07v7.34c0,0.67-0.08,1.18-0.08,1.18h0.06c0.62-1.37,2.46-3.25,5.29-3.25
			c3.33,0,4.87,1.82,4.87,5.43v6.97h2.21v2.1h-4.93v-8.46c0-1.99-0.42-3.56-2.69-3.56c-2.77,0-4.73,2.35-4.73,5.38v4.54h2.24v2.1
			h-7.17V17.67z"/>
		<path class="st2" d="M174.27,5.26c4.23,0,7.64,3.11,7.64,7.39c0,4.31-3.42,7.45-7.64,7.45c-4.23,0-7.64-3.14-7.64-7.45
			C166.63,8.37,170.04,5.26,174.27,5.26z M174.27,17.75c2.66,0,4.87-2.13,4.87-5.1c0-2.94-2.21-5.04-4.87-5.04
			c-2.69,0-4.87,2.1-4.87,5.04C169.4,15.62,171.58,17.75,174.27,17.75z"/>
		<path class="st2" d="M184.71,2.1h-2.35V0h5.07v15.57c0,1.2,0.28,2.02,1.51,2.02c0.45,0,0.76-0.03,0.76-0.03l-0.03,2.24
			c0,0-0.56,0.06-1.2,0.06c-2.02,0-3.75-0.81-3.75-4.12V2.1z"/>
		<path class="st2" d="M197.96,5.26c4.03,0,6.13,2.97,6.13,6.64c0,0.36-0.08,1.04-0.08,1.04h-10.36c0.17,3.14,2.38,4.82,4.9,4.82
			c2.46,0,4.23-1.6,4.23-1.6l1.12,1.99c0,0-2.13,1.96-5.52,1.96c-4.45,0-7.5-3.22-7.5-7.42C190.88,8.18,193.93,5.26,197.96,5.26z
			 M201.29,11.2c-0.08-2.49-1.6-3.78-3.39-3.78c-2.07,0-3.75,1.4-4.14,3.78H201.29z"/>
		<path class="st2" d="M212.35,17.58h2.46V2.16h-2.46V0h9.21c1.2,0,2.41,0.08,3.39,0.53c2.04,0.87,3.36,2.97,3.36,5.6
			c0,2.77-1.46,5.01-3.72,5.8c-0.92,0.34-1.88,0.42-2.97,0.42h-4v5.24h2.49v2.18h-7.76V17.58z M221.28,10.05
			c0.9,0,1.6-0.14,2.21-0.39c1.26-0.56,1.99-1.82,1.99-3.53c0-1.6-0.64-2.77-1.76-3.36c-0.62-0.34-1.46-0.48-2.41-0.48h-3.7v7.76
			H221.28z"/>
		<path class="st2" d="M236.49,5.26c4.03,0,6.13,2.97,6.13,6.64c0,0.36-0.08,1.04-0.08,1.04h-10.36c0.17,3.14,2.38,4.82,4.9,4.82
			c2.46,0,4.23-1.6,4.23-1.6l1.12,1.99c0,0-2.13,1.96-5.52,1.96c-4.45,0-7.5-3.22-7.5-7.42C229.4,8.18,232.46,5.26,236.49,5.26z
			 M239.82,11.2c-0.08-2.49-1.6-3.78-3.39-3.78c-2.07,0-3.75,1.4-4.14,3.78H239.82z"/>
		<path class="st2" d="M244.5,17.67h2.13V8.32c0-0.42-0.22-0.62-0.62-0.62h-1.76V5.6h3.19c1.23,0,1.82,0.5,1.82,1.65v0.9
			c0,0.56-0.06,0.98-0.06,0.98h0.06c0.64-2.07,2.3-3.7,4.48-3.7c0.36,0,0.7,0.06,0.7,0.06v2.69c0,0-0.34-0.08-0.78-0.08
			c-3.02,0-4.31,3.05-4.31,5.82v3.75h2.1v2.1h-6.94V17.67z"/>
		<path class="st2" d="M255.36,15.2h2.38v0.92c0,1.2,1.68,1.76,3.25,1.76c1.6,0,2.86-0.64,2.86-1.82c0-1.43-1.57-1.88-3.53-2.58
			c-2.1-0.78-4.42-1.74-4.42-4.31c0-2.8,2.77-3.92,5.24-3.92c1.99,0,4.9,0.78,4.9,2.86v1.71h-2.38V8.9c0-0.87-1.12-1.46-2.49-1.46
			c-1.34,0-2.52,0.56-2.52,1.71c0,1.34,1.57,1.9,3.28,2.49c2.18,0.73,4.68,1.65,4.68,4.28c0,2.69-2.46,4.17-5.68,4.17
			c-2.58,0-5.54-1.15-5.54-3.39V15.2z"/>
		<path class="st2" d="M275.77,5.26c4.23,0,7.64,3.11,7.64,7.39c0,4.31-3.42,7.45-7.64,7.45c-4.23,0-7.64-3.14-7.64-7.45
			C268.13,8.37,271.54,5.26,275.77,5.26z M275.77,17.75c2.66,0,4.87-2.13,4.87-5.1c0-2.94-2.21-5.04-4.87-5.04
			c-2.69,0-4.87,2.1-4.87,5.04C270.9,15.62,273.08,17.75,275.77,17.75z"/>
		<path class="st2" d="M285.07,17.67h2.21V8.32c0-0.42-0.22-0.62-0.62-0.62h-1.74V5.6h3.19c1.23,0,1.79,0.53,1.79,1.57V7.9
			c0,0.45-0.08,0.81-0.08,0.81h0.06c0.28-0.76,1.93-3.44,5.52-3.44c3.25,0,4.7,1.82,4.7,5.43v6.97h2.24v2.1h-4.96v-8.46
			c0-1.99-0.39-3.56-2.66-3.56c-2.86,0-4.73,2.6-4.73,5.43v4.48h2.24v2.1h-7.17V17.67z"/>
		<path class="st2" d="M304.44,16.83h2.91v2.94h-2.91V16.83z"/>
	</g>
</g>
<g id="Layer_3" class="st0">
	<text transform="matrix(1 0 0 1 94.1772 19.9203)" class="st2 st3 st4">A Time to Lead.</text>
</g>
<g id="Layer_3_copy">
	<g>
		<path class="st5" d="M105.85,0.15h-3.16l-6.3,17.58h-1.9v2.18h6.86v-2.18h-2.13l1.54-4.4h7l1.54,4.4h-2.1v2.18h6.86v-2.18h-1.9
			L105.85,0.15z M101.46,11.1l2.44-6.86c0.25-0.81,0.34-1.51,0.34-1.51h0.08c0,0,0.06,0.7,0.34,1.51l2.41,6.86H101.46z"/>
		<polygon class="st5" points="120.78,5.53 123.21,5.53 123.21,2.45 127.86,2.45 127.86,17.74 125.37,17.74 125.37,19.92 
			133.15,19.92 133.15,17.74 130.66,17.74 130.66,2.45 135.31,2.45 135.31,5.53 137.74,5.53 137.74,0.15 120.78,0.15 		"/>
		<rect x="141.24" y="0.15" class="st5" width="2.86" height="2.77"/>
		<polygon class="st5" points="144.02,5.75 138.95,5.75 138.95,7.85 141.3,7.85 141.3,17.82 139.09,17.82 139.09,19.92 
			146.26,19.92 146.26,17.82 144.02,17.82 		"/>
		<path class="st5" d="M171.54,10.85c0-3.61-1.48-5.43-4.62-5.43c-2.32,0-4.28,1.57-5.07,3.33h-0.06c-0.48-2.3-1.88-3.33-4.14-3.33
			c-2.3,0-4.34,1.76-5.04,3.44h-0.06c0,0,0.08-0.36,0.08-0.81V7.32c0-1.04-0.59-1.57-1.79-1.57h-3.19v2.1h1.74
			c0.39,0,0.62,0.2,0.62,0.59v9.38h-2.21v2.1h7.17v-2.1h-2.24v-4.31c0-2.77,1.57-5.63,4.26-5.63c2.18,0,2.46,1.71,2.46,3.56v8.48
			h4.93v-2.1h-2.21V13.4c0-2.8,1.51-5.52,4.17-5.52c2.13,0,2.49,1.57,2.49,3.56v8.48h4.96v-2.1h-2.24V10.85z"/>
		<path class="st5" d="M181.98,5.42c-4.03,0-7.08,2.91-7.08,7.42c0,4.2,3.05,7.42,7.5,7.42c3.39,0,5.52-1.96,5.52-1.96l-1.12-1.99
			c0,0-1.76,1.6-4.23,1.6c-2.52,0-4.73-1.68-4.9-4.82h10.36c0,0,0.08-0.67,0.08-1.04C188.12,8.38,186.02,5.42,181.98,5.42z
			 M177.78,11.35c0.39-2.38,2.07-3.78,4.14-3.78c1.79,0,3.3,1.29,3.39,3.78H177.78z"/>
		<path class="st5" d="M200.49,14.49V7.85h3.39v-2.1h-3.39V1.86h-2.66v3.89h-2.44v2.1h2.38v6.89c0,4.73,3.61,5.29,5.4,5.29
			c0.59,0,0.98-0.06,0.98-0.06v-2.27c0,0-0.25,0.03-0.64,0.03C202.45,17.74,200.49,17.37,200.49,14.49z"/>
		<path class="st5" d="M213.04,5.42c-4.23,0-7.64,3.11-7.64,7.39c0,4.31,3.42,7.45,7.64,7.45c4.23,0,7.64-3.14,7.64-7.45
			C220.68,8.52,217.26,5.42,213.04,5.42z M213.04,17.9c-2.69,0-4.87-2.13-4.87-5.1c0-2.94,2.18-5.04,4.87-5.04
			c2.66,0,4.87,2.1,4.87,5.04C217.91,15.78,215.7,17.9,213.04,17.9z"/>
		<polygon class="st5" points="241.06,17.62 234.18,17.62 234.18,2.45 236.67,2.45 236.67,0.15 228.91,0.15 228.91,2.45 
			231.38,2.45 231.38,17.74 228.91,17.74 228.91,19.92 243.53,19.92 243.53,14.43 241.06,14.43 		"/>
		<path class="st5" d="M251.84,5.42c-4.03,0-7.08,2.91-7.08,7.42c0,4.2,3.05,7.42,7.5,7.42c3.39,0,5.52-1.96,5.52-1.96l-1.12-1.99
			c0,0-1.76,1.6-4.23,1.6c-2.52,0-4.73-1.68-4.9-4.82h10.36c0,0,0.08-0.67,0.08-1.04C257.98,8.38,255.88,5.42,251.84,5.42z
			 M247.64,11.35c0.39-2.38,2.07-3.78,4.14-3.78c1.79,0,3.3,1.29,3.39,3.78H247.64z"/>
		<path class="st5" d="M271.25,17.2v-6.33c0-3.58-1.9-5.46-5.52-5.46c-3.3,0-5.38,1.68-5.38,1.68l1.09,1.93c0,0,1.82-1.37,4.06-1.37
			c1.74,0,3.02,0.78,3.02,3.02v0.53h-0.9c-2.35,0-8.26,0.31-8.26,4.76c0,2.91,2.35,4.28,4.7,4.28c3.44,0,4.68-3,4.68-3h0.06
			c0,0-0.11,0.36-0.11,0.92v0.2c0,0.92,0.5,1.54,1.76,1.54h2.83v-2.1h-1.43C271.47,17.82,271.25,17.62,271.25,17.2z M268.56,13.56
			c0,2.13-1.48,4.59-3.89,4.59c-1.62,0-2.55-1.15-2.55-2.41c0-2.72,4.45-2.77,5.74-2.77h0.7V13.56z"/>
		<path class="st5" d="M287.96,17.2V0.15h-5.07v2.1h2.35v4.48c0,0.62,0.08,1.06,0.08,1.06h-0.06c0,0-1.15-2.38-4.37-2.38
			c-3.81,0-6.44,2.91-6.44,7.42c0,4.4,2.38,7.42,6.19,7.42c3.64,0,4.79-2.83,4.79-2.83h0.06c0,0-0.08,0.28-0.08,0.76v0.2
			c0,0.92,0.5,1.54,1.76,1.54h2.83v-2.1h-1.43C288.19,17.82,287.96,17.62,287.96,17.2z M281.24,17.9c-2.35,0-4-1.99-4-5.07
			c0-3.22,1.82-5.04,4.09-5.04c2.69,0,4,2.46,4,5.07C285.33,16.39,283.34,17.9,281.24,17.9z"/>
		<rect x="292.33" y="16.98" class="st5" width="2.91" height="2.94"/>
	</g>
</g>
</svg>
